<mxfile host="app.diagrams.net" modified="2022-05-03T09:06:28.424Z" agent="5.0 (Windows NT 10.0; Win64; x64) AppleWebKit/537.36 (KHTML, like Gecko) Chrome/101.0.4951.41 Safari/537.36 Edg/101.0.1210.32" etag="SHwHYXWzipAX_myZ1fsf" version="17.5.0" type="github">
  <diagram id="chV1Qz5ida8zbCcd0L86" name="Page-1">
    <mxGraphModel dx="1038" dy="579" grid="1" gridSize="10" guides="1" tooltips="1" connect="1" arrows="1" fold="1" page="1" pageScale="1" pageWidth="850" pageHeight="1100" math="0" shadow="0">
      <root>
        <mxCell id="0" />
        <mxCell id="1" parent="0" />
        <mxCell id="CWWnz-G8Me5Cu2oc-mr2-4" value="" style="edgeStyle=orthogonalEdgeStyle;rounded=0;orthogonalLoop=1;jettySize=auto;html=1;" edge="1" parent="1" source="CWWnz-G8Me5Cu2oc-mr2-1" target="CWWnz-G8Me5Cu2oc-mr2-2">
          <mxGeometry relative="1" as="geometry" />
        </mxCell>
        <mxCell id="CWWnz-G8Me5Cu2oc-mr2-1" value="start" style="rounded=1;whiteSpace=wrap;html=1;" vertex="1" parent="1">
          <mxGeometry x="80" y="30" width="90" height="20" as="geometry" />
        </mxCell>
        <mxCell id="CWWnz-G8Me5Cu2oc-mr2-5" value="" style="edgeStyle=orthogonalEdgeStyle;rounded=0;orthogonalLoop=1;jettySize=auto;html=1;" edge="1" parent="1" source="CWWnz-G8Me5Cu2oc-mr2-2" target="CWWnz-G8Me5Cu2oc-mr2-3">
          <mxGeometry relative="1" as="geometry" />
        </mxCell>
        <mxCell id="CWWnz-G8Me5Cu2oc-mr2-2" value="IF destination reach or path undefined" style="rhombus;whiteSpace=wrap;html=1;" vertex="1" parent="1">
          <mxGeometry x="85" y="90" width="80" height="80" as="geometry" />
        </mxCell>
        <mxCell id="CWWnz-G8Me5Cu2oc-mr2-7" value="" style="edgeStyle=orthogonalEdgeStyle;rounded=0;orthogonalLoop=1;jettySize=auto;html=1;" edge="1" parent="1" source="CWWnz-G8Me5Cu2oc-mr2-3" target="CWWnz-G8Me5Cu2oc-mr2-6">
          <mxGeometry relative="1" as="geometry" />
        </mxCell>
        <mxCell id="CWWnz-G8Me5Cu2oc-mr2-3" value="return" style="whiteSpace=wrap;html=1;" vertex="1" parent="1">
          <mxGeometry x="65" y="200" width="120" height="60" as="geometry" />
        </mxCell>
        <mxCell id="CWWnz-G8Me5Cu2oc-mr2-9" value="" style="edgeStyle=orthogonalEdgeStyle;rounded=0;orthogonalLoop=1;jettySize=auto;html=1;" edge="1" parent="1" source="CWWnz-G8Me5Cu2oc-mr2-6" target="CWWnz-G8Me5Cu2oc-mr2-8">
          <mxGeometry relative="1" as="geometry" />
        </mxCell>
        <mxCell id="CWWnz-G8Me5Cu2oc-mr2-6" value="IF path is empty" style="rhombus;whiteSpace=wrap;html=1;" vertex="1" parent="1">
          <mxGeometry x="85" y="310" width="80" height="80" as="geometry" />
        </mxCell>
        <mxCell id="CWWnz-G8Me5Cu2oc-mr2-11" value="" style="edgeStyle=orthogonalEdgeStyle;rounded=0;orthogonalLoop=1;jettySize=auto;html=1;" edge="1" parent="1" source="CWWnz-G8Me5Cu2oc-mr2-8" target="CWWnz-G8Me5Cu2oc-mr2-10">
          <mxGeometry relative="1" as="geometry" />
        </mxCell>
        <mxCell id="CWWnz-G8Me5Cu2oc-mr2-8" value="set destination reach,&lt;br&gt;pedestrian cross as boolean" style="whiteSpace=wrap;html=1;" vertex="1" parent="1">
          <mxGeometry x="65" y="420" width="120" height="60" as="geometry" />
        </mxCell>
        <mxCell id="CWWnz-G8Me5Cu2oc-mr2-17" value="" style="edgeStyle=orthogonalEdgeStyle;rounded=0;orthogonalLoop=1;jettySize=auto;html=1;" edge="1" parent="1" source="CWWnz-G8Me5Cu2oc-mr2-10" target="CWWnz-G8Me5Cu2oc-mr2-16">
          <mxGeometry relative="1" as="geometry" />
        </mxCell>
        <mxCell id="CWWnz-G8Me5Cu2oc-mr2-10" value="IF char type projectile item" style="rhombus;whiteSpace=wrap;html=1;" vertex="1" parent="1">
          <mxGeometry x="85" y="520" width="80" height="80" as="geometry" />
        </mxCell>
        <mxCell id="CWWnz-G8Me5Cu2oc-mr2-19" style="edgeStyle=orthogonalEdgeStyle;rounded=0;orthogonalLoop=1;jettySize=auto;html=1;entryX=0.5;entryY=0;entryDx=0;entryDy=0;" edge="1" parent="1" source="CWWnz-G8Me5Cu2oc-mr2-16" target="CWWnz-G8Me5Cu2oc-mr2-18">
          <mxGeometry relative="1" as="geometry" />
        </mxCell>
        <mxCell id="CWWnz-G8Me5Cu2oc-mr2-16" value="call&amp;nbsp;setlifeLine" style="rounded=1;whiteSpace=wrap;html=1;fillColor=#f8cecc;gradientColor=#ea6b66;strokeColor=#b85450;" vertex="1" parent="1">
          <mxGeometry x="65" y="640" width="120" height="60" as="geometry" />
        </mxCell>
        <mxCell id="CWWnz-G8Me5Cu2oc-mr2-21" value="" style="edgeStyle=orthogonalEdgeStyle;rounded=0;orthogonalLoop=1;jettySize=auto;html=1;" edge="1" parent="1" source="CWWnz-G8Me5Cu2oc-mr2-18" target="CWWnz-G8Me5Cu2oc-mr2-20">
          <mxGeometry relative="1" as="geometry" />
        </mxCell>
        <mxCell id="CWWnz-G8Me5Cu2oc-mr2-18" value="IF target is tower and qbrk dmg" style="rhombus;whiteSpace=wrap;html=1;" vertex="1" parent="1">
          <mxGeometry x="260" y="40" width="80" height="80" as="geometry" />
        </mxCell>
        <mxCell id="CWWnz-G8Me5Cu2oc-mr2-23" value="" style="edgeStyle=orthogonalEdgeStyle;rounded=0;orthogonalLoop=1;jettySize=auto;html=1;" edge="1" parent="1" source="CWWnz-G8Me5Cu2oc-mr2-20" target="CWWnz-G8Me5Cu2oc-mr2-22">
          <mxGeometry relative="1" as="geometry" />
        </mxCell>
        <mxCell id="CWWnz-G8Me5Cu2oc-mr2-20" value="IF tower name is ppl" style="rhombus;whiteSpace=wrap;html=1;" vertex="1" parent="1">
          <mxGeometry x="260" y="160" width="80" height="80" as="geometry" />
        </mxCell>
        <mxCell id="CWWnz-G8Me5Cu2oc-mr2-26" value="" style="edgeStyle=orthogonalEdgeStyle;rounded=0;orthogonalLoop=1;jettySize=auto;html=1;" edge="1" parent="1" source="CWWnz-G8Me5Cu2oc-mr2-22" target="CWWnz-G8Me5Cu2oc-mr2-24">
          <mxGeometry relative="1" as="geometry" />
        </mxCell>
        <mxCell id="CWWnz-G8Me5Cu2oc-mr2-22" value="call&amp;nbsp;applyQbrk" style="rounded=1;whiteSpace=wrap;html=1;fillColor=#f8cecc;gradientColor=#ea6b66;strokeColor=#b85450;" vertex="1" parent="1">
          <mxGeometry x="240" y="270" width="120" height="60" as="geometry" />
        </mxCell>
        <mxCell id="CWWnz-G8Me5Cu2oc-mr2-28" value="YES" style="edgeStyle=orthogonalEdgeStyle;rounded=0;orthogonalLoop=1;jettySize=auto;html=1;" edge="1" parent="1" source="CWWnz-G8Me5Cu2oc-mr2-24" target="CWWnz-G8Me5Cu2oc-mr2-27">
          <mxGeometry relative="1" as="geometry" />
        </mxCell>
        <mxCell id="CWWnz-G8Me5Cu2oc-mr2-40" style="edgeStyle=orthogonalEdgeStyle;rounded=0;orthogonalLoop=1;jettySize=auto;html=1;entryX=0.5;entryY=0;entryDx=0;entryDy=0;" edge="1" parent="1" source="CWWnz-G8Me5Cu2oc-mr2-24" target="CWWnz-G8Me5Cu2oc-mr2-38">
          <mxGeometry relative="1" as="geometry" />
        </mxCell>
        <mxCell id="CWWnz-G8Me5Cu2oc-mr2-41" value="NO" style="edgeLabel;html=1;align=center;verticalAlign=middle;resizable=0;points=[];" vertex="1" connectable="0" parent="CWWnz-G8Me5Cu2oc-mr2-40">
          <mxGeometry x="-0.4638" y="-2" relative="1" as="geometry">
            <mxPoint as="offset" />
          </mxGeometry>
        </mxCell>
        <mxCell id="CWWnz-G8Me5Cu2oc-mr2-24" value="IF target is truck&amp;nbsp;" style="rhombus;whiteSpace=wrap;html=1;" vertex="1" parent="1">
          <mxGeometry x="260" y="360" width="80" height="80" as="geometry" />
        </mxCell>
        <mxCell id="CWWnz-G8Me5Cu2oc-mr2-30" value="yes" style="edgeStyle=orthogonalEdgeStyle;rounded=0;orthogonalLoop=1;jettySize=auto;html=1;" edge="1" parent="1" source="CWWnz-G8Me5Cu2oc-mr2-27" target="CWWnz-G8Me5Cu2oc-mr2-29">
          <mxGeometry relative="1" as="geometry" />
        </mxCell>
        <mxCell id="CWWnz-G8Me5Cu2oc-mr2-34" value="no" style="edgeStyle=orthogonalEdgeStyle;rounded=0;orthogonalLoop=1;jettySize=auto;html=1;" edge="1" parent="1" source="CWWnz-G8Me5Cu2oc-mr2-27" target="CWWnz-G8Me5Cu2oc-mr2-33">
          <mxGeometry relative="1" as="geometry" />
        </mxCell>
        <mxCell id="CWWnz-G8Me5Cu2oc-mr2-27" value="IF qbrk dmg on truck" style="rhombus;whiteSpace=wrap;html=1;" vertex="1" parent="1">
          <mxGeometry x="260" y="470" width="80" height="80" as="geometry" />
        </mxCell>
        <mxCell id="CWWnz-G8Me5Cu2oc-mr2-29" value="call&amp;nbsp;applyQbrk" style="rounded=1;whiteSpace=wrap;html=1;fillColor=#f8cecc;gradientColor=#ea6b66;strokeColor=#b85450;" vertex="1" parent="1">
          <mxGeometry x="250" y="580" width="120" height="60" as="geometry" />
        </mxCell>
        <mxCell id="CWWnz-G8Me5Cu2oc-mr2-36" value="" style="edgeStyle=orthogonalEdgeStyle;rounded=0;orthogonalLoop=1;jettySize=auto;html=1;" edge="1" parent="1" source="CWWnz-G8Me5Cu2oc-mr2-33" target="CWWnz-G8Me5Cu2oc-mr2-35">
          <mxGeometry relative="1" as="geometry" />
        </mxCell>
        <mxCell id="CWWnz-G8Me5Cu2oc-mr2-33" value="ELSE" style="rhombus;whiteSpace=wrap;html=1;" vertex="1" parent="1">
          <mxGeometry x="390" y="470" width="80" height="80" as="geometry" />
        </mxCell>
        <mxCell id="CWWnz-G8Me5Cu2oc-mr2-35" value="setCrdActnNeutrl" style="rounded=1;whiteSpace=wrap;html=1;fillColor=#f8cecc;gradientColor=#ea6b66;strokeColor=#b85450;" vertex="1" parent="1">
          <mxGeometry x="380" y="590" width="120" height="60" as="geometry" />
        </mxCell>
        <mxCell id="CWWnz-G8Me5Cu2oc-mr2-37" value="" style="edgeStyle=orthogonalEdgeStyle;rounded=0;orthogonalLoop=1;jettySize=auto;html=1;" edge="1" parent="1" source="CWWnz-G8Me5Cu2oc-mr2-38" target="CWWnz-G8Me5Cu2oc-mr2-39">
          <mxGeometry relative="1" as="geometry" />
        </mxCell>
        <mxCell id="CWWnz-G8Me5Cu2oc-mr2-38" value="ELSE IF target is tower" style="rhombus;whiteSpace=wrap;html=1;" vertex="1" parent="1">
          <mxGeometry x="435" y="230" width="80" height="80" as="geometry" />
        </mxCell>
        <mxCell id="CWWnz-G8Me5Cu2oc-mr2-44" style="edgeStyle=orthogonalEdgeStyle;rounded=0;orthogonalLoop=1;jettySize=auto;html=1;entryX=0.5;entryY=0;entryDx=0;entryDy=0;" edge="1" parent="1" source="CWWnz-G8Me5Cu2oc-mr2-39" target="CWWnz-G8Me5Cu2oc-mr2-43">
          <mxGeometry relative="1" as="geometry" />
        </mxCell>
        <mxCell id="CWWnz-G8Me5Cu2oc-mr2-39" value="setCrdActnNeutrl" style="rounded=1;whiteSpace=wrap;html=1;fillColor=#f8cecc;gradientColor=#ea6b66;strokeColor=#b85450;" vertex="1" parent="1">
          <mxGeometry x="425" y="350" width="120" height="60" as="geometry" />
        </mxCell>
        <mxCell id="CWWnz-G8Me5Cu2oc-mr2-46" value="" style="edgeStyle=orthogonalEdgeStyle;rounded=0;orthogonalLoop=1;jettySize=auto;html=1;" edge="1" parent="1" source="CWWnz-G8Me5Cu2oc-mr2-43" target="CWWnz-G8Me5Cu2oc-mr2-45">
          <mxGeometry relative="1" as="geometry" />
        </mxCell>
        <mxCell id="CWWnz-G8Me5Cu2oc-mr2-43" value="set previous instruction and remove first data" style="rounded=0;whiteSpace=wrap;html=1;" vertex="1" parent="1">
          <mxGeometry x="590" y="80" width="120" height="60" as="geometry" />
        </mxCell>
        <mxCell id="CWWnz-G8Me5Cu2oc-mr2-48" value="" style="edgeStyle=orthogonalEdgeStyle;rounded=0;orthogonalLoop=1;jettySize=auto;html=1;" edge="1" parent="1" source="CWWnz-G8Me5Cu2oc-mr2-45" target="CWWnz-G8Me5Cu2oc-mr2-47">
          <mxGeometry relative="1" as="geometry" />
        </mxCell>
        <mxCell id="CWWnz-G8Me5Cu2oc-mr2-45" value="IF path not empty" style="rhombus;whiteSpace=wrap;html=1;rounded=0;" vertex="1" parent="1">
          <mxGeometry x="610" y="200" width="80" height="80" as="geometry" />
        </mxCell>
        <mxCell id="CWWnz-G8Me5Cu2oc-mr2-47" value="" style="whiteSpace=wrap;html=1;rounded=0;" vertex="1" parent="1">
          <mxGeometry x="600" y="340" width="120" height="60" as="geometry" />
        </mxCell>
      </root>
    </mxGraphModel>
  </diagram>
</mxfile>
